<?xml version="1.0" standalone="no"?>
<!DOCTYPE svg PUBLIC "-//W3C//DTD SVG 20010904//EN"
 "http://www.w3.org/TR/2001/REC-SVG-20010904/DTD/svg10.dtd">
<svg version="1.0" xmlns="http://www.w3.org/2000/svg"
 width="500.000000pt" height="500.000000pt" viewBox="0 0 500.000000 500.000000"
 preserveAspectRatio="xMidYMid meet">

<g transform="translate(0.000000,500.000000) scale(0.100000,-0.100000)"
fill="#000000" stroke="none">
<path d="M2478 3943 c-11 -37 -32 -76 -60 -109 -46 -54 -131 -114 -161 -114
-11 0 -15 -4 -11 -12 4 -7 3 -8 -4 -4 -7 4 -20 2 -29 -3 -16 -9 -16 -10 3 -11
31 0 133 -56 172 -93 45 -43 71 -88 92 -153 l17 -55 12 43 c19 63 54 119 104
165 47 43 133 93 164 94 10 0 -15 16 -55 34 -89 42 -169 119 -195 191 -10 27
-22 57 -25 67 -5 12 -12 1 -24 -40z"/>
<path d="M1730 3142 c0 -5 9 -12 19 -15 11 -3 29 -20 40 -38 21 -33 21 -47 21
-684 0 -599 -1 -653 -18 -685 -9 -19 -27 -39 -39 -45 -44 -19 -22 -25 92 -25
114 0 136 6 93 25 -13 6 -31 26 -40 45 -17 32 -18 83 -18 618 0 381 3 582 10
582 6 0 10 -4 10 -10 0 -5 11 -33 24 -62 13 -29 52 -120 86 -203 35 -82 73
-172 85 -200 24 -54 84 -194 241 -562 55 -128 101 -233 104 -233 3 0 41 84 84
188 44 103 88 205 97 227 10 22 45 105 79 185 34 80 70 163 80 186 11 22 28
63 39 91 11 28 29 70 40 94 23 53 99 232 131 312 13 31 27 57 32 57 4 0 8
-278 8 -617 0 -568 -1 -621 -18 -653 -9 -19 -27 -39 -39 -45 -13 -5 -23 -13
-23 -17 0 -5 68 -8 150 -8 93 0 150 4 150 10 0 6 -6 10 -13 10 -17 0 -50 39
-57 65 -3 11 -5 317 -5 680 l0 660 24 28 c14 15 31 27 38 27 7 0 13 5 13 10 0
7 -41 10 -117 8 l-116 -3 -17 -30 c-9 -16 -54 -120 -100 -230 -103 -248 -147
-351 -244 -580 -43 -99 -98 -230 -123 -292 -25 -62 -49 -110 -54 -108 -4 3
-22 40 -39 83 -18 42 -40 95 -50 117 -10 22 -30 69 -45 105 -14 36 -32 79 -39
95 -8 17 -44 102 -81 190 -37 88 -71 165 -75 170 -4 6 -9 19 -12 30 -3 11 -47
117 -97 236 l-92 217 -110 1 c-62 1 -109 -2 -109 -7z"/>
</g>
</svg>
